<?xml version="1.0" encoding="utf-8"?>
<!-- Svg Vector Icons : http://www.onlinewebfonts.com/icon -->
<!DOCTYPE svg PUBLIC "-//W3C//DTD SVG 1.1//EN" "http://www.w3.org/Graphics/SVG/1.1/DTD/svg11.dtd">
<svg version="1.1" xmlns="http://www.w3.org/2000/svg" xmlns:xlink="http://www.w3.org/1999/xlink" x="0px" y="0px" viewBox="0 0 1000 1000" enable-background="new 0 0 1000 1000" xml:space="preserve">
<metadata> Svg Vector Icons : http://www.onlinewebfonts.com/icon </metadata>
<g><path d="M523.9,852.4L534,744.4c175-38.6,262.6-110.6,262.6-216.1c0-30.2-28.1-62.8-84.2-98c-55.3-35.2-82.9-78.8-82.9-130.7c0-46.1,14.7-82.9,44-110.6c29.3-27.6,67.8-41.4,115.5-41.4c56.2,0,103.7,19.5,142.6,58.4c39,38.9,58.4,89.8,58.4,152.7c0,123.9-39.8,229.4-119.3,316.6C791.1,762.3,675.5,821.4,523.9,852.4 M10,852.4l10-108.1c175.1-39.5,262.6-111.4,262.6-216.1c0-30.2-28-62.8-84.1-98c-55.3-35.2-82.9-78.8-82.9-130.7c0-46.1,14.4-82.9,43.3-110.6c28.9-27.6,67.6-41.4,116.2-41.4c56.9,0,104.5,19.5,142.6,58.4c38.1,38.9,57.2,89.8,57.2,152.7c0,125.6-39.8,231.8-119.4,318.5C275.9,763.9,160.8,822.3,10,852.4"/></g>
</svg>